#!OML:ASF H:\Terrain\Walking\May29\JustinRory\Justin.ASF
:FULLY-SPECIFIED
:DEGREES
1241
root 11.6931 17.1586 -8.50647 -186.749 -208.375 177.618
lowerback 5.69256 -2.98072 -4.85135
upperback 1.4921 -4.19461 2.78155
thorax -1.083 -2.10435 5.86654
lowerneck -15.5887 -6.66437 -13.7326
upperneck 20.0165 -7.61814 8.08258
head 9.7774 -3.73223 4.06739
rclavicle -1.0878e-014 8.34896e-015
rhumerus 34.4825 9.36184 -67.1669
rradius 67.9857
rwrist 0.320781
rhand -25.739 14.4949
rfingers 7.12502
rthumb 0.797823 -15.4834
lclavicle -1.0878e-014 8.34896e-015
lhumerus 50.3355 -25.2507 67.464
lradius 53.2441
lwrist -17.9305
lhand -13.7721 32.2376
lfingers 7.12502
lthumb 12.3488 61.8529
rfemur -20.0738 -4.14939 16.905
rtibia 33.6886
rfoot -6.24649 -3.74154
rtoes 6.96454
lfemur 1.30119 1.03014 -10.7233
ltibia 44.7294
lfoot -2.13904 -27.1363
ltoes -15.1103
1242
root 11.7124 17.1478 -8.53049 -186.496 -207.856 177.758
lowerback 5.50925 -2.82131 -4.7401
upperback 1.50768 -3.96865 2.76849
thorax -1.00431 -1.99384 5.76695
lowerneck -15.5644 -6.67031 -13.6477
upperneck 19.717 -7.59716 7.9173
head 9.65447 -3.7308 3.99375
rclavicle 8.81622e-015 2.18663e-014
rhumerus 33.5737 8.935 -67.9327
rradius 70.8778
rwrist 1.82786
rhand -27.7415 16.3464
rfingers 7.12502
rthumb -1.13628 -13.6303
lclavicle 8.81622e-015 2.18663e-014
lhumerus 48.8745 -24.7185 69.249
lradius 55.5746
lwrist -18.9031
lhand -16.6626 31.2306
lfingers 7.12502
lthumb 9.56092 60.9937
rfemur -20.7485 -3.90498 16.7629
rtibia 34.3183
rfoot -6.29419 -3.40442
rtoes 7.0682
lfemur 1.83048 0.964834 -11.2971
ltibia 43.8856
lfoot -2.09977 -27.8678
ltoes -6.52745
1243
root 11.7408 17.1344 -8.55615 -186.144 -207.443 178.086
lowerback 5.25999 -2.94691 -4.63762
upperback 1.58322 -4.12217 2.69301
thorax -0.779865 -2.07934 5.61734
lowerneck -15.8593 -6.53394 -13.6618
upperneck 19.4127 -7.30675 7.75174
head 9.56143 -3.60448 3.97023
rclavicle 8.1452e-014 -7.95139e-016
rhumerus 33.2483 9.00474 -69.1956
rradius 73.1171
rwrist 3.66508
rhand -29.4198 18.8054
rfingers 7.12502
rthumb -2.75713 -11.1566
lclavicle 8.1452e-014 -7.95139e-016
lhumerus 47.4162 -23.6415 70.1757
lradius 58.0309
lwrist -18.9893
lhand -19.2677 31.3302
lfingers 7.12502
lthumb 7.04672 61.1929
rfemur -21.4204 -3.85545 16.4051
rtibia 34.9978
rfoot -6.35676 -3.03045
rtoes 6.5654
lfemur 2.35882 0.716733 -12.1459
ltibia 43.0032
lfoot -4.39581 -27.329
ltoes -6.62905
1244
root 11.769 17.1055 -8.58864 -185.662 -207.169 178.758
lowerback 5.04425 -3.10649 -4.92236
upperback 1.63889 -4.3428 2.57856
thorax -0.560364 -2.19892 5.64994
lowerneck -15.9343 -6.31903 -13.8951
upperneck 18.9666 -6.93293 7.83401
head 9.38737 -3.43198 4.08531
rclavicle 3.70671e-014 -1.47101e-014
rhumerus 33.1305 9.26976 -70.1133
rradius 74.91
rwrist 5.44387
rhand -30.7734 20.0046
rfingers 7.12502
rthumb -4.06428 -9.93635
lclavicle 3.70671e-014 -1.47101e-014
lhumerus 46.3894 -22.5699 71.172
lradius 59.7859
lwrist -18.7567
lhand -20.9106 31.8316
lfingers 7.12502
lthumb 5.46063 61.7412
rfemur -22.0586 -4.09477 15.6934
rtibia 35.7199
rfoot -6.67008 -2.56879
rtoes 5.39436
lfemur 2.88896 0.504444 -13.2981
ltibia 42.2198
lfoot -7.192 -25.8848
ltoes -11.707
1245
root 11.784 17.0801 -8.61392 -185.256 -206.747 179.194
lowerback 4.77492 -3.03334 -5.31299
upperback 1.64692 -4.25291 2.58099
thorax -0.384021 -2.16195 5.85158
lowerneck -15.7031 -6.26211 -13.9496
upperneck 18.542 -6.8797 7.94764
head 9.19744 -3.39879 4.14073
rclavicle 7.20594e-016 -2.82274e-014
rhumerus 33.001 9.17846 -70.6046
rradius 76.0585
rwrist 6.68681
rhand -31.9619 20.3264
rfingers 7.12502
rthumb -5.21194 -9.58947
lclavicle 7.20594e-016 -2.82274e-014
lhumerus 45.9549 -22.0207 72.585
lradius 60.7171
lwrist -18.332
lhand -21.5005 31.834
lfingers 7.12502
lthumb 4.89112 61.7575
rfemur -22.7883 -4.00695 15.2807
rtibia 36.5469
rfoot -7.12288 -2.34643
rtoes 3.58936
lfemur 3.31784 0.558903 -14.0552
ltibia 41.5865
lfoot -8.7924 -25.229
ltoes -12.5342
